<?xml version="1.0" encoding="UTF-8" standalone="no"?>
<!DOCTYPE svg PUBLIC "-//W3C//DTD SVG 1.1//EN" "http://www.w3.org/Graphics/SVG/1.1/DTD/svg11.dtd">
<svg width="100%" height="100%" viewBox="0 0 31 31" version="1.1" xmlns="http://www.w3.org/2000/svg" xmlns:xlink="http://www.w3.org/1999/xlink" xml:space="preserve" xmlns:serif="http://www.serif.com/" style="fill-rule:evenodd;clip-rule:evenodd;stroke-linejoin:round;stroke-miterlimit:2;">
    <g transform="matrix(1,0,0,1,-4,-305)">
        <g transform="matrix(1,0,0,1,-192.129,-190.522)">
            <g transform="matrix(1,0,0,1,192.129,190.522)">
                <path d="M19.798,305.807L19.9,305.807C24.871,305.807 28.943,307.921 32.117,312.15C33.963,314.874 34.886,317.521 34.886,320.089L34.886,321.598C34.886,324.986 33.396,328.321 30.418,331.603C27.166,334.454 23.865,335.88 20.516,335.88L19.183,335.88C16.155,335.88 13.089,334.659 9.983,332.218C6.536,329.083 4.812,325.245 4.812,320.704C4.812,315.48 7.254,311.197 12.137,307.858C14.588,306.49 17.141,305.807 19.798,305.807ZM20.411,321.33L16.875,315.19L13.324,321.33L20.411,321.33ZM12.022,323.579L13.339,325.858C13.605,326.375 14.138,326.731 14.745,326.731L23.518,326.731L21.698,323.579L12.022,323.579ZM27.676,323.594C27.676,323.283 27.587,322.987 27.424,322.736L22.275,313.8C22.009,313.297 21.491,312.956 20.885,312.956L18.162,312.956L26.107,326.716L27.365,324.541C27.602,324.127 27.676,323.949 27.676,323.594Z" style="fill-rule:nonzero;"/>
            </g>
        </g>
    </g>
</svg>
