<?xml version="1.0" encoding="UTF-8" standalone="no"?>
<!DOCTYPE svg PUBLIC "-//W3C//DTD SVG 1.1//EN" "http://www.w3.org/Graphics/SVG/1.1/DTD/svg11.dtd">
<svg width="100%" height="100%" viewBox="0 0 31 31" version="1.1" xmlns="http://www.w3.org/2000/svg" xmlns:xlink="http://www.w3.org/1999/xlink" xml:space="preserve" xmlns:serif="http://www.serif.com/" style="fill-rule:evenodd;clip-rule:evenodd;stroke-linejoin:round;stroke-miterlimit:2;">
    <g transform="matrix(1,0,0,1,-119,-305)">
        <g transform="matrix(1,0,0,1,-192.129,-190.522)">
            <g transform="matrix(1,0,0,1,4,0)">
                <path d="M321.945,496.299L322.648,496.299C325.803,496.299 328.952,497.515 332.097,499.947C334.431,502.291 335.856,504.4 336.374,506.275C336.725,507.056 336.96,507.947 337.077,508.948C337.194,509.949 337.253,510.601 337.253,510.904L337.253,512.325C337.018,514.483 336.545,516.294 335.832,517.759C334.26,520.943 331.857,523.345 328.625,524.966C326.31,525.923 324.23,526.402 322.385,526.402L322.209,526.402C318.478,526.402 315.065,525.035 311.97,522.3C310.026,520.279 308.81,518.497 308.322,516.954C307.785,515.752 307.429,514.239 307.253,512.413L307.253,510.538C307.253,507.471 308.527,504.356 311.076,501.192C314.416,497.93 318.039,496.299 321.945,496.299ZM316.247,505.909L316.247,506.451C316.413,507.339 316.975,507.784 317.932,507.784C318.713,507.784 319.25,507.339 319.543,506.451L319.543,506.363C319.543,505.445 318.976,504.908 317.844,504.751C317.15,504.751 316.618,505.137 316.247,505.909ZM323.908,509.834L323.718,509.834L323.718,508.941L320.876,508.941L320.876,517.408C320.895,517.525 320.954,517.584 321.052,517.584L323.542,517.584C323.659,517.584 323.718,517.525 323.718,517.408L323.718,512.867C323.864,511.617 324.372,510.992 325.241,510.992C326.247,510.992 326.75,511.617 326.75,512.867L326.75,517.408C326.769,517.525 326.828,517.584 326.926,517.584L329.606,517.584L329.606,511.973C329.606,510.967 329.128,510.044 328.171,509.205C327.448,508.912 327.004,508.765 326.838,508.765L325.944,508.765C325.251,508.794 324.572,509.151 323.908,509.834ZM316.423,509.117L316.423,517.408C316.442,517.525 316.501,517.584 316.599,517.584L319.089,517.584C319.206,517.584 319.265,517.525 319.265,517.408L319.265,509.292L319.089,508.941L316.599,508.941C316.481,508.96 316.423,509.019 316.423,509.117Z" style="fill-rule:nonzero;"/>
            </g>
        </g>
    </g>
</svg>
