<?xml version="1.0" encoding="UTF-8" standalone="no"?>
<!DOCTYPE svg PUBLIC "-//W3C//DTD SVG 1.1//EN" "http://www.w3.org/Graphics/SVG/1.1/DTD/svg11.dtd">
<svg width="100%" height="100%" viewBox="0 0 31 31" version="1.1" xmlns="http://www.w3.org/2000/svg" xmlns:xlink="http://www.w3.org/1999/xlink" xml:space="preserve" xmlns:serif="http://www.serif.com/" style="fill-rule:evenodd;clip-rule:evenodd;stroke-linejoin:round;stroke-miterlimit:2;">
    <g transform="matrix(1,0,0,1,-80,-305)">
        <g transform="matrix(1,0,0,1,-192.129,-190.522)">
            <g transform="matrix(1,0,0,1,4,0)">
                <path d="M283.807,496.299L284.422,496.299C287.782,496.299 291.024,497.579 294.149,500.137C297.469,503.506 299.129,507.042 299.129,510.743L299.129,512.178C299.129,514.327 298.299,516.851 296.639,519.751C294.588,522.681 291.795,524.703 288.26,525.816C286.62,526.226 285.252,526.431 284.159,526.431L284.071,526.431C279.979,526.431 276.322,524.83 273.099,521.626C270.365,518.501 268.998,515.084 268.998,511.373C268.998,507.408 270.545,503.78 273.641,500.489C276.864,497.696 280.252,496.299 283.807,496.299ZM284.701,508.78L284.701,509.498C284.701,509.615 284.637,509.673 284.51,509.673C282.645,509.419 281.043,508.765 279.706,507.71L278.46,506.553L278.358,506.553C278.358,506.651 278.241,506.89 278.006,507.271L278.006,508.34C278.084,508.946 278.5,509.629 279.251,510.391L279.251,510.479C278.841,510.479 278.426,510.362 278.006,510.127L278.006,510.215C278.006,511.358 278.749,512.339 280.233,513.16L280.057,513.248L279.618,513.248L279.164,513.16L279.164,513.335C279.847,514.585 280.711,515.21 281.756,515.21L281.756,515.474C280.584,516.187 279.422,516.543 278.27,516.543L277.743,516.543L277.743,516.719C279.422,517.491 280.877,517.876 282.108,517.876C284.686,517.876 286.883,516.836 288.7,514.756C290.008,512.94 290.663,511.216 290.663,509.585L290.663,508.97C291.61,508.062 292.088,507.554 292.098,507.447L292.098,507.359C291.756,507.535 291.278,507.686 290.663,507.813L290.575,507.623C291.131,507.3 291.546,506.856 291.82,506.29L291.82,506.202L291.732,506.202C290.853,506.622 290.321,506.832 290.135,506.832L289.872,506.832C289.217,506.294 288.622,505.997 288.084,505.938L287.367,505.938C286.371,505.938 285.57,506.5 284.964,507.623C284.789,507.916 284.701,508.301 284.701,508.78Z" style="fill-rule:nonzero;"/>
            </g>
        </g>
    </g>
</svg>
