<?xml version="1.0" encoding="UTF-8" standalone="no"?>
<!DOCTYPE svg PUBLIC "-//W3C//DTD SVG 1.1//EN" "http://www.w3.org/Graphics/SVG/1.1/DTD/svg11.dtd">
<svg width="100%" height="100%" viewBox="0 0 31 31" version="1.1" xmlns="http://www.w3.org/2000/svg" xmlns:xlink="http://www.w3.org/1999/xlink" xml:space="preserve" xmlns:serif="http://www.serif.com/" style="fill-rule:evenodd;clip-rule:evenodd;stroke-linejoin:round;stroke-miterlimit:2;">
    <g transform="matrix(1,0,0,1,-195,-305)">
        <g transform="matrix(1,0,0,1,-192.129,-190.522)">
            <g transform="matrix(1,0,0,1,4,0)">
                <path d="M398.807,496.299C404.022,496.299 408.26,498.599 411.522,503.199C413.134,505.894 413.939,508.458 413.939,510.889L413.939,511.871C413.939,515.396 412.474,518.799 409.545,522.081C407.435,523.985 405.409,525.206 403.466,525.743C402.626,526.045 401.581,526.285 400.331,526.46L397.372,526.46C395.819,526.285 394.178,525.84 392.45,525.127C388.788,523.272 386.224,520.523 384.759,516.88C384.037,514.888 383.675,513.042 383.675,511.343C383.675,506.89 385.585,502.95 389.403,499.522C392.352,497.374 395.487,496.299 398.807,496.299ZM399.877,508.926C400.414,508.741 400.775,508.648 400.961,508.648C401.674,508.707 402.03,509.004 402.03,509.542L402.03,509.996C401.542,511.763 400.765,513.018 399.701,513.76L399.437,513.76C398.92,513.76 398.324,511.49 397.65,506.949C397.211,506.255 396.82,505.84 396.478,505.704L395.409,505.704C394.813,505.879 393.47,506.954 391.381,508.926C391.742,509.463 391.952,509.732 392.01,509.732L392.098,509.732L393.08,509.102L393.343,509.102C393.92,509.102 394.755,511.397 395.848,515.987C396.503,517.54 397.162,518.316 397.826,518.316L398.177,518.316C400.17,518.316 402.675,515.752 405.692,510.625C406.053,509.649 406.234,508.873 406.234,508.296L406.234,507.93C406.234,506.788 405.878,506.045 405.165,505.704L404.271,505.425L403.641,505.425C402.626,505.611 401.849,505.943 401.312,506.421C400.541,507.3 400.062,508.135 399.877,508.926Z" style="fill-rule:nonzero;"/>
            </g>
        </g>
    </g>
</svg>
