<?xml version="1.0" encoding="UTF-8" standalone="no"?>
<!DOCTYPE svg PUBLIC "-//W3C//DTD SVG 1.1//EN" "http://www.w3.org/Graphics/SVG/1.1/DTD/svg11.dtd">
<svg width="100%" height="100%" viewBox="0 0 31 31" version="1.1" xmlns="http://www.w3.org/2000/svg" xmlns:xlink="http://www.w3.org/1999/xlink" xml:space="preserve" xmlns:serif="http://www.serif.com/" style="fill-rule:evenodd;clip-rule:evenodd;stroke-linejoin:round;stroke-miterlimit:2;">
    <g transform="matrix(1,0,0,1,-157,-305)">
        <g transform="matrix(1,0,0,1,-192.129,-190.522)">
            <g transform="matrix(1,0,0,1,4,0)">
                <path d="M360.508,496.329C365.42,496.329 369.517,498.467 372.798,502.745C374.644,505.538 375.567,508.448 375.567,511.475C375.567,514.981 374.287,518.277 371.729,521.363C368.496,524.751 364.756,526.446 360.508,526.446C355.674,526.446 351.607,524.366 348.306,520.206C347.271,518.819 346.436,517.007 345.801,514.771L345.45,512.281L345.45,510.669C345.557,508.423 346.211,506.167 347.412,503.902C350.733,498.853 355.098,496.329 360.508,496.329ZM359.878,505.601C354.888,505.601 352.393,505.987 352.393,506.758C352.012,506.993 351.778,508.594 351.69,511.563L351.69,511.651C351.69,515.01 352.105,516.915 352.935,517.364C353.579,517.657 355.064,517.803 357.388,517.803L365.415,517.803C367.281,517.803 368.379,517.388 368.711,516.558C369.063,515.669 369.239,514.244 369.239,512.281L369.239,511.036C369.239,508.252 368.882,506.617 368.169,506.128C367.632,505.777 364.868,505.601 359.878,505.601ZM358.721,509.249L358.809,509.249C361.612,510.704 363.067,511.504 363.174,511.651L358.999,513.965L358.721,513.965L358.721,509.249Z" style="fill-rule:nonzero;"/>
            </g>
        </g>
    </g>
</svg>
